<svg class="livechat-bubble-svg" style=" fill: #0039A6; color: #0039A6; margin:0 5px 4px; height: 20px; width: auto; vertical-align: middle;" xmlns="http://www.w3.org/2000/svg" viewBox="0 0 68.33 59.22"><defs><style>.livechat-bubble-path{stroke-miterlimit:10;}</style></defs><title>Live Chat Icon</title><path d="M57.54 37.19c.38 2.68 2.1 8.61 8.5 15.49a1.63 1.63 0 0 1 .38 1.63 1.11 1.11 0 0 1-1 1 18.37 18.37 0 0 1-2.87.19c-3.91 0-11-.77-19.87-4.88a33.9 33.9 0 0 1-12.24 2.2c-16.15 0-29.25-11.18-29.25-25.14S14.24 2.5 30.39 2.5 59.64 13.78 59.64 27.73A22.55 22.55 0 0 1 57.54 37.19Z"></path></svg>