<?xml version="1.0" encoding="utf-8"?>
<!-- Generator: Adobe Illustrator 21.1.0, SVG Export Plug-In . SVG Version: 6.00 Build 0)  -->
<svg version="1.1" id="Layer_1" xmlns="http://www.w3.org/2000/svg" xmlns:xlink="http://www.w3.org/1999/xlink" x="0px" y="0px"
	 viewBox="0 0 476.7 129.7" style="enable-background:new 0 0 476.7 129.7;" xml:space="preserve">
<style type="text/css">
	.st0{fill:#FFFFFF;}
</style>
<path class="st0" d="M150.3,21.2c0.8-1.2,2-1.7,7-1.7h2.7v29c0,5-0.6,5.5-5.8,5.9v1.9h18.9v-1.9c-5.5-0.4-6.1-0.9-6.1-5.9v-29h3.3
	c3.9,0,5.3,0.4,6.4,1.6c0.9,1,1.6,2.9,2.4,5.9l2-0.1c-0.3-3.1-0.5-7.1-0.6-10.5h-33.8c-0.2,3.5-0.4,7.2-0.7,10.7h2.1
	C148.7,24.2,149.4,22.2,150.3,21.2z"/>
<path class="st0" d="M199,50.8l-1-1.5c-2.1,1.9-4.4,2.8-6.8,2.8c-4.3,0-8.3-3.3-8.5-10.5c6.4-0.2,13.8-0.8,14.9-1
	c1.3-0.2,1.6-0.9,1.6-2.1c0-4.8-4.2-9.5-9.6-9.5c-3.2,0-6.5,1.6-9.1,4.4c-2.5,2.5-4.3,6.4-4.3,10.8c0,7,4.4,13,12.2,13
	C190.8,57.1,195.3,55.9,199,50.8z M188.4,31.4c2.7,0,4.3,3,4.3,6.2c-0.1,1-0.4,1.2-1.4,1.2c-2.8,0.1-5.4,0.2-8.2,0.2
	C183.6,34.1,185.9,31.4,188.4,31.4z"/>
<path class="st0" d="M215.2,57.1c3.6,0,7.6-2.7,10.4-6.4l-1.1-1.4c-2.4,2.1-4.2,2.8-6.8,2.8c-2.9,0-8.7-2.7-8.7-10.8
	c0-6.5,3-9.1,5.9-9.1c1.9,0,3.9,0.9,6.1,2.9c0.5,0.5,0.9,0.7,1.3,0.7c0.9,0,2.4-1.5,2.4-3.1c0-0.8-0.2-1.4-1.1-2.1
	c-1-0.8-3-1.5-5.3-1.5c-2.4,0-6.2,0.9-9.9,3.6c-3.9,3-6.1,7.1-6.1,11.7C202.5,50.9,207.2,57.1,215.2,57.1z"/>
<path class="st0" d="M241.6,54.6c-2.8-0.4-3.2-0.6-3.2-4.5V35.6c1.6-1.3,3.4-2.3,5.3-2.3c2.8,0,4.7,1.8,4.7,6.1v10.2
	c0,4.3-0.4,4.6-3.3,5v1.8h13.6v-1.8c-3.3-0.4-3.7-0.6-3.7-4.5V38.5c0-6-3-9.5-7.8-9.5c-1.8,0-3.1,0.6-4.8,1.8
	c-1.5,0.9-2.7,1.8-3.9,2.7v-4.6c-3.3,1.1-6.8,1.9-10,2.4v1.6c3.1,0.6,3.4,0.8,3.4,4.5v12.5c0,4-0.3,4.2-4.2,4.7v1.8h14V54.6z"/>
<path class="st0" d="M274.7,57.1c6.7,0,13.7-4.8,13.7-14.5c0-7.3-5.4-13.6-13.6-13.6c-6.3,0-14,4.8-14,14.7
	C260.9,50.3,265.7,57.1,274.7,57.1z M274.1,31.2c4.4,0,6.8,5.1,6.8,13c0,8.7-2.7,10.7-5.5,10.7c-4.2,0-7-5.8-7-13.3
	C268.4,34.6,271.2,31.2,274.1,31.2z"/>
<path class="st0" d="M305.5,54.6c-3.8-0.4-4.2-0.7-4.2-4.7V13.6c-2.9,0.8-7.1,1.8-10.5,2.1v1.7c3.5,0.4,3.8,0.5,3.8,4.4v28
	c0,3.9-0.4,4.2-4.1,4.7v1.8h14.9V54.6z"/>
<path class="st0" d="M321.4,57.1c6.7,0,13.7-4.8,13.7-14.5c0-7.3-5.5-13.6-13.6-13.6c-6.3,0-14,4.8-14,14.7
	C307.6,50.3,312.4,57.1,321.4,57.1z M320.8,31.2c4.4,0,6.8,5.1,6.8,13c0,8.7-2.7,10.7-5.5,10.7c-4.2,0-7-5.8-7-13.3
	C315.2,34.6,317.9,31.2,320.8,31.2z"/>
<path class="st0" d="M329,16l-0.3-0.6c-0.9-0.2-5.4,0.3-6,0.7c-0.4,1.2-2.4,7.2-3.3,9.8l1.8,0.9L329,16z"/>
<path class="st0" d="M349.3,71.5c8,0,15.7-5.6,15.7-12.3c0-6.2-5.3-7.3-9.1-7.3c-1.9,0-3.8,0.1-5.9,0.1c-2.8,0-3.8-1.3-3.8-2.3
	c0-0.7,0.6-1.5,1.2-2c1,0.1,2,0.3,3,0.3c5.6,0,11.2-3.1,11.2-9.6c0-2.1-0.7-3.6-1.6-4.9l3.5,0.2c1-0.6,2.2-2.4,2.6-3.4l-0.3-0.5
	c-2.3,0.3-5.5,0.7-8.5,0.8c-2.1-1.1-3.9-1.6-6.2-1.6c-5.2,0-11.4,3.1-11.4,10c0,3.9,2.4,6.8,5.8,8.1c-1.1,1.2-3,2.8-5.9,3.9
	c-0.1,0.7,0.2,2.1,0.8,3c0.8,1.3,2.1,2.5,4.5,3.4c-1.5,1-3.3,2.2-4.7,3.4c-1.1,0.9-1.7,1.9-1.7,3.3
	C338.3,67.5,341.8,71.5,349.3,71.5z M350.5,31.1c3.1,0,4.7,3.5,4.7,7.8c0,4.5-1.6,7-4.1,7c-3-0.1-4.7-3.5-4.7-7.8
	C346.4,33.5,348.4,31.1,350.5,31.1z M346.1,58.7c1-1,2.3-1.3,5.3-1.3c2.4,0,3.8,0.1,5.4,0.6c1.9,0.5,3.1,1.9,3.1,4.1
	c0,3.4-2.8,6.1-7.8,6.1c-4.7,0-7.9-2.7-7.9-5.8C344.2,60.9,345,59.8,346.1,58.7z"/>
<path class="st0" d="M382.5,54.6c-3.8-0.4-4.1-0.8-4.1-4.9V29c-3.1,1-6.7,1.8-10.2,2.2v1.7c3.1,0.5,3.5,0.7,3.5,4.6v12.2
	c0,4.2-0.4,4.5-4,4.9v1.8h14.7V54.6z"/>
<path class="st0" d="M374.7,24.7c2.2,0,3.9-1.8,3.9-3.8c0-2.2-1.7-3.9-3.9-3.9c-2.1,0-3.9,1.7-3.9,3.9
	C370.9,22.9,372.7,24.7,374.7,24.7z"/>
<path class="st0" d="M397.1,57.1c3.6,0,7.6-2.7,10.4-6.4l-1.1-1.4c-2.4,2.1-4.2,2.8-6.8,2.8c-2.9,0-8.7-2.7-8.7-10.8
	c0-6.5,3-9.1,5.9-9.1c1.9,0,3.9,0.9,6.1,2.9c0.5,0.5,0.9,0.7,1.3,0.7c0.9,0,2.4-1.5,2.4-3.1c0-0.8-0.2-1.4-1.1-2.1
	c-1-0.8-3-1.5-5.3-1.5c-2.4,0-6.2,0.9-9.9,3.6c-3.9,3-6.1,7.1-6.1,11.7C384.3,50.9,389.1,57.1,397.1,57.1z"/>
<path class="st0" d="M423.3,57.1c6.7,0,13.7-4.8,13.7-14.5c0-7.3-5.5-13.6-13.6-13.6c-6.3,0-14.1,4.8-14.1,14.7
	C409.4,50.3,414.2,57.1,423.3,57.1z M422.7,31.2c4.4,0,6.8,5.1,6.8,13c0,8.7-2.7,10.7-5.5,10.7c-4.2,0-7-5.8-7-13.3
	C417,34.6,419.7,31.2,422.7,31.2z"/>
<path class="st0" d="M174,103.4V67.3c-2.8,0.8-7.3,2.5-11,2.9v1.8c3.9,0.4,4.3,0.7,4.3,4.2v7.7c-1.4-0.3-2.5-0.4-3.1-0.4
	c-9,0-16.2,6.7-16.2,15c0,8.8,6.9,13.1,12,13.1c0.7,0,1.8-0.2,3.6-1.3l3.7-2.3v3.7c4.3-1.4,9.6-2.1,11-2.4v-1.8l-1.5-0.2
	C174.3,107,174,106.8,174,103.4z M167.3,105.8c-1.4,0.9-2.8,1.4-4.2,1.4c-3.2,0-7.6-3.1-7.6-10.5c0-9,4.8-10.9,6.7-10.9
	c2,0,3.9,1,5.1,3.1V105.8z"/>
<path class="st0" d="M203,105.2l-1-1.5c-2.1,1.9-4.4,2.8-6.8,2.8c-4.3,0-8.3-3.3-8.5-10.5c6.4-0.2,13.8-0.8,14.9-1
	c1.3-0.2,1.6-0.9,1.6-2.1c0-4.8-4.2-9.5-9.6-9.5c-3.2,0-6.5,1.6-9.1,4.4c-2.5,2.5-4.3,6.4-4.3,10.8c0,7,4.4,13,12.2,13
	C194.8,111.5,199.3,110.3,203,105.2z M192.4,85.8c2.7,0,4.3,3,4.3,6.2c-0.1,1-0.4,1.1-1.4,1.1c-2.8,0.1-5.4,0.2-8.2,0.2
	C187.6,88.5,189.9,85.8,192.4,85.8z"/>
<path class="st0" d="M249.7,108.9v1.9h17.3v-1.9c-5-0.5-5.2-0.9-5.3-6.8L261,79.7c-0.1-5.5,0.2-5.8,5.2-6.3v-2h-11.5l-12.7,27.9
	l-12.4-27.9H218v2c5.3,0.5,5.7,1.1,5.2,8.4L222.3,94c-0.5,6.4-0.9,9.3-1.3,11.3c-0.4,2.2-1.5,3.2-5,3.5v2h14.4v-2
	c-4.1-0.4-5.3-0.8-5.5-3.6c-0.2-2.1-0.2-4.8,0.1-9.9l0.8-16.3h0.2l12.8,31.4h1.6l13.9-32.1h0.2l0.2,23.8
	C254.7,108,254.4,108.4,249.7,108.9z"/>
<path class="st0" d="M295.6,97c0-7.3-5.4-13.6-13.6-13.6c-6.3,0-14,4.8-14,14.7c0,6.7,4.8,13.4,13.9,13.4
	C288.5,111.5,295.6,106.8,295.6,97z M282.5,109.3c-4.2,0-7-5.8-7-13.3c0-6.9,2.7-10.4,5.7-10.4c4.4,0,6.8,5.1,6.8,13
	C288,107.4,285.3,109.3,282.5,109.3z"/>
<path class="st0" d="M328.5,109c-3.3-0.4-3.7-0.6-3.7-4.5V92.9c0-6-3-9.5-7.8-9.5c-1.8,0-3.1,0.6-4.8,1.8c-1.5,0.9-2.7,1.8-3.9,2.7
	v-4.6c-3.3,1.1-6.8,1.9-10.1,2.4v1.6c3.1,0.6,3.4,0.8,3.4,4.5v12.5c0,4-0.3,4.2-4.2,4.7v1.8h14V109c-2.8-0.4-3.2-0.6-3.2-4.5V90
	c1.6-1.3,3.4-2.3,5.3-2.3c2.8,0,4.7,1.8,4.7,6.1V104c0,4.3-0.4,4.6-3.3,5v1.8h13.6V109z"/>
<path class="st0" d="M332.7,86.9V104c0,5.3,2.5,7.5,6.8,7.5c0.5,0,1.5-0.2,2.5-0.7l4.7-2.2l-0.6-1.9c-1,0.4-2.1,0.8-3.3,0.8
	c-1.3,0-3.5-0.7-3.5-5.4V86.9h5.9c0.9-0.5,1-2.1,0.4-2.7h-6.3v-8.6l-0.8-0.3l-5.8,4.5v4.4h-2.5l-1.7,2l0.3,0.7H332.7z"/>
<path class="st0" d="M370.5,105.2l-1-1.5c-2.1,1.9-4.4,2.8-6.8,2.8c-4.3,0-8.3-3.3-8.5-10.5c6.4-0.2,13.8-0.8,14.9-1
	c1.3-0.2,1.6-0.9,1.6-2.1c0-4.8-4.2-9.5-9.6-9.5c-3.2,0-6.5,1.6-9.1,4.4c-2.5,2.5-4.3,6.4-4.3,10.8c0,7,4.4,13,12.2,13
	C362.3,111.5,366.8,110.3,370.5,105.2z M359.9,85.8c2.7,0,4.3,3,4.3,6.2c-0.1,1-0.4,1.1-1.4,1.1c-2.8,0.1-5.4,0.2-8.2,0.2
	C355.1,88.5,357.4,85.8,359.9,85.8z"/>
<path class="st0" d="M373.2,85.7v1.6c3.1,0.6,3.5,0.8,3.5,4.2v13c0,3.8-0.5,4.1-4,4.5v1.8h15.6V109c-4.7-0.4-5-0.7-5-4.5V93.3
	c1.2-2.8,2.6-3.9,3.9-3.9c1,0,1.7,0.4,2.7,1.3c0.4,0.4,1,0.5,1.8,0.2c1.5-0.5,2.6-2.1,2.6-3.9c0-1.9-1.6-3.5-3.9-3.5
	c-2.5,0-5,2.8-7,6.4h-0.1v-6.5C379.9,84.5,376.6,85.2,373.2,85.7z"/>
<path class="st0" d="M413.9,83.4c-2.5,0-5,2.8-7,6.4h-0.1v-6.5c-3.5,1.2-6.7,1.9-10.1,2.4v1.6c3.1,0.6,3.5,0.8,3.5,4.2v13
	c0,3.8-0.5,4.1-4,4.5v1.8h15.6V109c-4.7-0.4-5-0.7-5-4.5V93.3c1.2-2.8,2.6-3.9,3.9-3.9c1,0,1.7,0.4,2.7,1.3c0.4,0.4,1,0.5,1.8,0.2
	c1.5-0.5,2.6-2.1,2.6-3.9C417.8,85.1,416.2,83.4,413.9,83.4z"/>
<path class="st0" d="M421.9,87.8c-2.5,2.5-4.3,6.4-4.3,10.8c0,7,4.4,13,12.2,13c2.3,0,6.8-1.2,10.5-6.4l-1-1.5
	c-2.1,1.9-4.4,2.8-6.8,2.8c-4.3,0-8.3-3.3-8.5-10.5c6.4-0.2,13.8-0.8,14.9-1c1.3-0.2,1.6-0.9,1.6-2.1c0-4.8-4.2-9.5-9.6-9.5
	C427.9,83.4,424.5,85.1,421.9,87.8z M434,92c-0.1,1-0.4,1.1-1.4,1.1c-2.8,0.1-5.5,0.2-8.2,0.2c0.5-4.8,2.8-7.5,5.3-7.5
	C432.4,85.8,434,88.8,434,92z"/>
<path class="st0" d="M445.4,90c1.4,3.3,4.5,11.4,7.4,19.5c0.4,1,0.5,1.9,0.2,2.8c-0.2,0.8-0.6,1.7-1.4,3.1c-1.3,2.2-2.6,3.5-4.8,4.7
	c-1.2,0.8-1.6,1.3-1.6,2.3c0,1.9,2.3,3.5,4,3.5c0.9,0,1.7-0.3,2.1-1.6c1-3.4,2.2-7,6.3-16.8c3.8-9,5.7-14,7.2-17.2
	c1.6-3.3,2.1-3.9,5.1-4.4v-1.8H459v1.8c3.1,0.5,3.7,1.3,3,3.4c-1.2,3.6-3.4,10-4.9,13.7l-4.9-14c-0.7-2.1-0.3-2.5,2.4-3v-1.8h-14
	v1.8C443.5,86.4,444.2,87.1,445.4,90z"/>
<path class="st0" d="M34.9,99.6h33.6h33.6c-6.5,9-16.3,12.3-26.2,13.8v8.4c29.4-3.7,52.2-28.8,52.2-59.2C128.2,29.7,101.5,3,68.5,3
	C35.6,3,8.9,29.7,8.9,62.7c0,30.4,22.8,55.5,52.2,59.2v-8.4C51.2,111.9,41.4,108.6,34.9,99.6z M100,71.1c-4,3.9-2.4,2.3-8.8,8.7
	C80.7,90,80.6,96.9,80.6,96.9c-5.8-6.4-2.3-17.1,4-23.2c2.6-2.6,7.5-7.2,10.9-10.5c7.1-6.7,9.3-8.7,10.3-11.3
	C108.6,63.2,102.6,68.3,100,71.1z M106.1,30.1c5,11.7-1.7,17.5-5.7,21.6c-4,4.1-12.1,11.7-18.5,18.1c-15.2,13.9-15.4,22.9-14.6,27
	c-11.2-13.1-2.3-23,3.4-28.6c2.6-2.6,18.7-18.4,22.4-22C106.1,33.8,106.1,30.1,106.1,30.1z M86.6,46.2C82.1,50.6,70.9,61.6,64.4,68
	C48.2,83.9,54,96.8,54,96.8c-10.3-7.6-8-23.4,2.6-33.8c2.9-2.8,21.3-21,24.9-24.4C93,27.5,92.5,24,92.5,24
	C97.4,35.8,90.6,42.2,86.6,46.2z M83.6,30c-3.7,3.7-21.1,21.3-28.2,27.7c-1.8,1.6-13.5,12.4-12.8,22.4c-6.5-8.3-4.8-18.8,7.3-29.6
	c2.9-2.9,18.6-18.3,23.9-23.4C85,16.2,84.3,11.9,84.8,9.7C92.6,17.7,87.8,25.8,83.6,30z M35.6,46.1c2.6-2.7,22.6-22.2,25.9-25.6
	c8.2-8.3,6.6-15,6.6-15c9.5,7.3,6,15.1,0.9,20.1c-4.2,4.1-19.1,19.1-26,25.6c-10.9,10.5-9.6,19.1-7.5,26.6
	C27.5,69.7,23.9,58.3,35.6,46.1z"/>
</svg>
